<mxfile host="app.diagrams.net" modified="2022-06-18T08:19:34.812Z" agent="5.0 (Windows NT 10.0; Win64; x64) AppleWebKit/537.36 (KHTML, like Gecko) Chrome/101.0.0.0 Safari/537.36" etag="_Ua6rM5uIxnWzoDTNprk" version="20.0.1" type="github">
  <diagram id="iMI2ej3poaa-jU5f6yJ9" name="Page-1">
    <mxGraphModel dx="985" dy="610" grid="1" gridSize="10" guides="1" tooltips="1" connect="1" arrows="1" fold="1" page="1" pageScale="1" pageWidth="827" pageHeight="1169" math="0" shadow="0">
      <root>
        <mxCell id="0" />
        <mxCell id="1" parent="0" />
        <mxCell id="ASU7W0zZZqwKRMPDZ5jo-1" value="2核CPU" style="ellipse;whiteSpace=wrap;html=1;aspect=fixed;" vertex="1" parent="1">
          <mxGeometry x="340" y="160" width="80" height="80" as="geometry" />
        </mxCell>
        <mxCell id="ASU7W0zZZqwKRMPDZ5jo-2" value="核心" style="ellipse;whiteSpace=wrap;html=1;aspect=fixed;" vertex="1" parent="1">
          <mxGeometry x="200" y="270" width="80" height="80" as="geometry" />
        </mxCell>
        <mxCell id="ASU7W0zZZqwKRMPDZ5jo-3" value="核心" style="ellipse;whiteSpace=wrap;html=1;aspect=fixed;" vertex="1" parent="1">
          <mxGeometry x="480" y="270" width="80" height="80" as="geometry" />
        </mxCell>
        <mxCell id="ASU7W0zZZqwKRMPDZ5jo-4" value="QQ" style="rounded=1;whiteSpace=wrap;html=1;" vertex="1" parent="1">
          <mxGeometry x="165" y="410" width="150" height="60" as="geometry" />
        </mxCell>
        <mxCell id="ASU7W0zZZqwKRMPDZ5jo-5" value="微信" style="rounded=1;whiteSpace=wrap;html=1;" vertex="1" parent="1">
          <mxGeometry x="460" y="410" width="150" height="60" as="geometry" />
        </mxCell>
        <mxCell id="ASU7W0zZZqwKRMPDZ5jo-6" value="" style="endArrow=classic;html=1;rounded=0;entryX=0.5;entryY=0;entryDx=0;entryDy=0;" edge="1" parent="1" target="ASU7W0zZZqwKRMPDZ5jo-4">
          <mxGeometry width="50" height="50" relative="1" as="geometry">
            <mxPoint x="240" y="350" as="sourcePoint" />
            <mxPoint x="290" y="300" as="targetPoint" />
          </mxGeometry>
        </mxCell>
        <mxCell id="ASU7W0zZZqwKRMPDZ5jo-7" value="" style="endArrow=classic;html=1;rounded=0;entryX=0.5;entryY=0;entryDx=0;entryDy=0;" edge="1" parent="1">
          <mxGeometry width="50" height="50" relative="1" as="geometry">
            <mxPoint x="519.5799999999999" y="350" as="sourcePoint" />
            <mxPoint x="519.5799999999999" y="410" as="targetPoint" />
          </mxGeometry>
        </mxCell>
        <mxCell id="ASU7W0zZZqwKRMPDZ5jo-8" value="支付宝" style="rounded=1;whiteSpace=wrap;html=1;" vertex="1" parent="1">
          <mxGeometry x="650" y="410" width="150" height="60" as="geometry" />
        </mxCell>
        <mxCell id="ASU7W0zZZqwKRMPDZ5jo-9" value="QQ" style="rounded=1;whiteSpace=wrap;html=1;" vertex="1" parent="1">
          <mxGeometry x="110" y="790" width="150" height="60" as="geometry" />
        </mxCell>
        <mxCell id="ASU7W0zZZqwKRMPDZ5jo-10" value="微信" style="rounded=1;whiteSpace=wrap;html=1;" vertex="1" parent="1">
          <mxGeometry x="330" y="790" width="150" height="60" as="geometry" />
        </mxCell>
        <mxCell id="ASU7W0zZZqwKRMPDZ5jo-11" value="支付宝" style="rounded=1;whiteSpace=wrap;html=1;" vertex="1" parent="1">
          <mxGeometry x="540" y="790" width="150" height="60" as="geometry" />
        </mxCell>
        <mxCell id="ASU7W0zZZqwKRMPDZ5jo-12" value="核心" style="ellipse;whiteSpace=wrap;html=1;aspect=fixed;" vertex="1" parent="1">
          <mxGeometry x="350" y="600" width="80" height="80" as="geometry" />
        </mxCell>
        <mxCell id="ASU7W0zZZqwKRMPDZ5jo-13" value="" style="endArrow=classic;html=1;rounded=0;entryX=0.5;entryY=0;entryDx=0;entryDy=0;" edge="1" parent="1">
          <mxGeometry width="50" height="50" relative="1" as="geometry">
            <mxPoint x="389.5799999999999" y="680" as="sourcePoint" />
            <mxPoint x="389.5799999999999" y="740" as="targetPoint" />
          </mxGeometry>
        </mxCell>
        <mxCell id="ASU7W0zZZqwKRMPDZ5jo-14" value="时间片轮转法" style="text;html=1;strokeColor=none;fillColor=none;align=center;verticalAlign=middle;whiteSpace=wrap;rounded=0;" vertex="1" parent="1">
          <mxGeometry x="630" y="680" width="130" height="30" as="geometry" />
        </mxCell>
        <mxCell id="ASU7W0zZZqwKRMPDZ5jo-15" value="num=101" style="rounded=1;whiteSpace=wrap;html=1;" vertex="1" parent="1">
          <mxGeometry x="340" y="930" width="120" height="60" as="geometry" />
        </mxCell>
        <mxCell id="ASU7W0zZZqwKRMPDZ5jo-16" value="获取num&lt;br&gt;num+=1&lt;br&gt;把加完的值赋值给num" style="whiteSpace=wrap;html=1;aspect=fixed;" vertex="1" parent="1">
          <mxGeometry x="110" y="1010" width="140" height="140" as="geometry" />
        </mxCell>
        <mxCell id="ASU7W0zZZqwKRMPDZ5jo-17" value="&lt;span style=&quot;&quot;&gt;获取num&lt;/span&gt;&lt;br style=&quot;&quot;&gt;&lt;span style=&quot;&quot;&gt;num+=1&lt;/span&gt;&lt;br style=&quot;&quot;&gt;&lt;span style=&quot;&quot;&gt;把加完的值赋值给num&lt;/span&gt;" style="whiteSpace=wrap;html=1;aspect=fixed;" vertex="1" parent="1">
          <mxGeometry x="570" y="1005" width="140" height="140" as="geometry" />
        </mxCell>
        <mxCell id="ASU7W0zZZqwKRMPDZ5jo-18" value="单核CPU" style="ellipse;whiteSpace=wrap;html=1;aspect=fixed;" vertex="1" parent="1">
          <mxGeometry x="365" y="1180" width="80" height="80" as="geometry" />
        </mxCell>
        <mxCell id="ASU7W0zZZqwKRMPDZ5jo-19" value="num=100" style="text;html=1;strokeColor=none;fillColor=none;align=center;verticalAlign=middle;whiteSpace=wrap;rounded=0;" vertex="1" parent="1">
          <mxGeometry x="255" y="1020" width="60" height="30" as="geometry" />
        </mxCell>
        <mxCell id="ASU7W0zZZqwKRMPDZ5jo-20" value="num=150" style="text;html=1;strokeColor=none;fillColor=none;align=center;verticalAlign=middle;whiteSpace=wrap;rounded=0;" vertex="1" parent="1">
          <mxGeometry x="510" y="1020" width="60" height="30" as="geometry" />
        </mxCell>
        <mxCell id="ASU7W0zZZqwKRMPDZ5jo-21" value="加完的值是101" style="text;html=1;strokeColor=none;fillColor=none;align=center;verticalAlign=middle;whiteSpace=wrap;rounded=0;" vertex="1" parent="1">
          <mxGeometry x="255" y="1050" width="95" height="30" as="geometry" />
        </mxCell>
        <mxCell id="ASU7W0zZZqwKRMPDZ5jo-22" value="加完的值是150" style="text;html=1;strokeColor=none;fillColor=none;align=center;verticalAlign=middle;whiteSpace=wrap;rounded=0;" vertex="1" parent="1">
          <mxGeometry x="475" y="1050" width="95" height="30" as="geometry" />
        </mxCell>
      </root>
    </mxGraphModel>
  </diagram>
</mxfile>
